<svg width="498" height="353" viewBox="0 0 498 353" fill="none" xmlns="http://www.w3.org/2000/svg">
<path d="M210.292 65.0449C238.468 59.4405 267.673 62.3169 294.214 73.3106C320.755 84.3042 343.439 102.922 359.399 126.808C375.36 150.694 383.879 178.776 383.879 207.504H321.629C321.629 161.664 284.468 124.504 238.629 124.504C192.789 124.504 155.629 161.664 155.629 207.504C155.629 252.985 192.211 289.923 237.556 290.497L238.629 290.504V352.754C209.901 352.754 181.819 344.235 157.933 328.274C134.046 312.314 115.429 289.63 104.436 263.089C93.4419 236.548 90.5654 207.343 96.1699 179.167C101.774 150.991 115.608 125.11 135.922 104.797C156.235 84.4833 182.116 70.6495 210.292 65.0449Z" fill="#1875BA"/>
<rect x="238.625" y="290.5" width="259.375" height="62.25" fill="#1875BA"/>
<rect x="62.25" y="352.75" width="62.25" height="259.375" transform="rotate(180 62.25 352.75)" fill="#DE2125"/>
<path d="M67.4375 0C5.1875 0 0 62.25 0 93.375C25.9375 93.375 62.25 119.312 62.25 93.375C62.25 72.625 46.6875 62.25 155.625 62.25V0H67.4375Z" fill="#DE2125"/>
<path d="M212.452 11.0909V14.8409H195.611V46H191.384V11.0909H212.452ZM215.993 46V42.1136H217.016C218.47 42.1136 219.601 41.6477 220.408 40.7159C221.214 39.7841 221.794 38.2784 222.146 36.1989C222.51 34.1193 222.754 31.3636 222.879 27.9318L223.493 11.0909H244.766V46H240.538V14.8409H227.516L226.97 28.75C226.834 32.4091 226.499 35.5227 225.964 38.0909C225.43 40.6591 224.493 42.6193 223.152 43.9716C221.811 45.3239 219.857 46 217.288 46H215.993ZM282.666 28.5455C282.666 32.2273 282.001 35.4091 280.672 38.0909C279.342 40.7727 277.518 42.8409 275.2 44.2955C272.882 45.75 270.234 46.4773 267.257 46.4773C264.28 46.4773 261.632 45.75 259.314 44.2955C256.996 42.8409 255.172 40.7727 253.842 38.0909C252.513 35.4091 251.848 32.2273 251.848 28.5455C251.848 24.8636 252.513 21.6818 253.842 19C255.172 16.3182 256.996 14.25 259.314 12.7955C261.632 11.3409 264.28 10.6136 267.257 10.6136C270.234 10.6136 272.882 11.3409 275.2 12.7955C277.518 14.25 279.342 16.3182 280.672 19C282.001 21.6818 282.666 24.8636 282.666 28.5455ZM278.575 28.5455C278.575 25.5227 278.07 22.9716 277.058 20.892C276.058 18.8125 274.7 17.2386 272.984 16.1705C271.28 15.1023 269.371 14.5682 267.257 14.5682C265.143 14.5682 263.229 15.1023 261.513 16.1705C259.808 17.2386 258.45 18.8125 257.439 20.892C256.439 22.9716 255.939 25.5227 255.939 28.5455C255.939 31.5682 256.439 34.1193 257.439 36.1989C258.45 38.2784 259.808 39.8523 261.513 40.9205C263.229 41.9886 265.143 42.5227 267.257 42.5227C269.371 42.5227 271.28 41.9886 272.984 40.9205C274.7 39.8523 276.058 38.2784 277.058 36.1989C278.07 34.1193 278.575 31.5682 278.575 28.5455ZM289.774 46V11.0909H310.842V14.8409H294.001V25.75H302.865C305.365 25.75 307.473 26.1591 309.189 26.9773C310.916 27.7955 312.223 28.9489 313.109 30.4375C314.007 31.9261 314.456 33.6818 314.456 35.7045C314.456 37.7273 314.007 39.5114 313.109 41.0568C312.223 42.6023 310.916 43.8125 309.189 44.6875C307.473 45.5625 305.365 46 302.865 46H289.774ZM294.001 42.3182H302.865C304.456 42.3182 305.803 42 306.905 41.3636C308.018 40.7159 308.859 39.8864 309.428 38.875C310.007 37.8523 310.297 36.7727 310.297 35.6364C310.297 33.9659 309.655 32.5284 308.371 31.3239C307.087 30.108 305.251 29.5 302.865 29.5H294.001V42.3182ZM322.847 46H318.415L331.233 11.0909H335.597L348.415 46H343.983L333.551 16.6136H333.278L322.847 46ZM324.483 32.3636H342.347V36.1136H324.483V32.3636ZM350.852 46V42.1136H351.875C353.33 42.1136 354.46 41.6477 355.267 40.7159C356.074 39.7841 356.653 38.2784 357.006 36.1989C357.369 34.1193 357.614 31.3636 357.739 27.9318L358.352 11.0909H379.625V46H375.398V14.8409H362.375L361.83 28.75C361.693 32.4091 361.358 35.5227 360.824 38.0909C360.29 40.6591 359.352 42.6193 358.011 43.9716C356.67 45.3239 354.716 46 352.148 46H350.852Z" fill="#DE2125"/>
<path d="M330.42 315H326.192C325.942 313.784 325.505 312.716 324.88 311.795C324.266 310.875 323.516 310.102 322.63 309.477C321.755 308.841 320.783 308.364 319.715 308.045C318.647 307.727 317.533 307.568 316.374 307.568C314.261 307.568 312.346 308.102 310.63 309.17C308.925 310.239 307.567 311.812 306.556 313.892C305.556 315.972 305.056 318.523 305.056 321.545C305.056 324.568 305.556 327.119 306.556 329.199C307.567 331.278 308.925 332.852 310.63 333.92C312.346 334.989 314.261 335.523 316.374 335.523C317.533 335.523 318.647 335.364 319.715 335.045C320.783 334.727 321.755 334.256 322.63 333.631C323.516 332.994 324.266 332.216 324.88 331.295C325.505 330.364 325.942 329.295 326.192 328.091H330.42C330.102 329.875 329.522 331.472 328.681 332.881C327.84 334.29 326.795 335.489 325.545 336.477C324.295 337.455 322.891 338.199 321.335 338.71C319.789 339.222 318.136 339.477 316.374 339.477C313.397 339.477 310.749 338.75 308.431 337.295C306.113 335.841 304.289 333.773 302.96 331.091C301.63 328.409 300.965 325.227 300.965 321.545C300.965 317.864 301.63 314.682 302.96 312C304.289 309.318 306.113 307.25 308.431 305.795C310.749 304.341 313.397 303.614 316.374 303.614C318.136 303.614 319.789 303.869 321.335 304.381C322.891 304.892 324.295 305.642 325.545 306.631C326.795 307.608 327.84 308.801 328.681 310.21C329.522 311.608 330.102 313.205 330.42 315ZM366.705 321.545C366.705 325.227 366.04 328.409 364.711 331.091C363.381 333.773 361.558 335.841 359.239 337.295C356.921 338.75 354.273 339.477 351.296 339.477C348.319 339.477 345.671 338.75 343.353 337.295C341.035 335.841 339.211 333.773 337.881 331.091C336.552 328.409 335.887 325.227 335.887 321.545C335.887 317.864 336.552 314.682 337.881 312C339.211 309.318 341.035 307.25 343.353 305.795C345.671 304.341 348.319 303.614 351.296 303.614C354.273 303.614 356.921 304.341 359.239 305.795C361.558 307.25 363.381 309.318 364.711 312C366.04 314.682 366.705 317.864 366.705 321.545ZM362.614 321.545C362.614 318.523 362.109 315.972 361.097 313.892C360.097 311.812 358.739 310.239 357.023 309.17C355.319 308.102 353.41 307.568 351.296 307.568C349.183 307.568 347.268 308.102 345.552 309.17C343.847 310.239 342.489 311.812 341.478 313.892C340.478 315.972 339.978 318.523 339.978 321.545C339.978 324.568 340.478 327.119 341.478 329.199C342.489 331.278 343.847 332.852 345.552 333.92C347.268 334.989 349.183 335.523 351.296 335.523C353.41 335.523 355.319 334.989 357.023 333.92C358.739 332.852 360.097 331.278 361.097 329.199C362.109 327.119 362.614 324.568 362.614 321.545ZM385.813 308.25H391.336C393.927 308.25 396.228 308.83 398.239 309.989C400.251 311.148 401.83 312.761 402.978 314.83C404.126 316.898 404.7 319.295 404.7 322.023C404.7 324.75 404.126 327.153 402.978 329.233C401.83 331.312 400.251 332.937 398.239 334.108C396.228 335.278 393.927 335.864 391.336 335.864H385.813C383.222 335.864 380.921 335.284 378.91 334.125C376.898 332.966 375.319 331.352 374.171 329.284C373.023 327.216 372.45 324.818 372.45 322.091C372.45 319.364 373.023 316.96 374.171 314.881C375.319 312.801 376.898 311.176 378.91 310.006C380.921 308.835 383.222 308.25 385.813 308.25ZM385.813 312C383.836 312 382.165 312.415 380.802 313.244C379.45 314.074 378.421 315.244 377.717 316.756C377.023 318.267 376.677 320.045 376.677 322.091C376.677 324.114 377.023 325.875 377.717 327.375C378.421 328.875 379.45 330.04 380.802 330.869C382.165 331.699 383.836 332.114 385.813 332.114H391.336C393.313 332.114 394.978 331.699 396.33 330.869C397.694 330.04 398.722 328.869 399.415 327.358C400.12 325.847 400.472 324.068 400.472 322.023C400.472 320 400.12 318.239 399.415 316.739C398.722 315.239 397.694 314.074 396.33 313.244C394.978 312.415 393.313 312 391.336 312H385.813ZM390.722 303.477V340.432H386.495V303.477H390.722ZM408.42 307.841V304.091H434.602V307.841H423.624V339H419.397V307.841H408.42Z" fill="white"/>
</svg>
